<svg width="192" height="52" fill="none" xmlns="http://www.w3.org/2000/svg"><path d="M128.294 18.4v5.838h-7.647v-5.837h-3.768v15.41h3.768v-6.226h7.647v6.225h3.768V18.4h-3.768zM59.83 27.477l2.32-5.595a.328.328 0 0 1 .118-.16c.054-.04.12-.061.187-.06.066-.001.132.02.186.06.055.039.096.095.118.16l2.32 5.595H59.83zm5.721-7.355a3.466 3.466 0 0 0-1.246-1.514 3.341 3.341 0 0 0-1.85-.573 3.342 3.342 0 0 0-1.847.575c-.549.37-.981.896-1.245 1.512l-6.15 13.688h3.993l1.344-3.228h7.804l1.344 3.228h4.004l-6.151-13.688zM20.631 15.603c-1.763 0-2.892.963-3.726 2.905L11.992 30.13 7.08 18.52c-.835-1.943-1.958-2.917-3.726-2.917C1.706 15.603 0 16.824 0 19.455V33.81h3.763V19.848l4.944 11.498c.661 1.614 1.732 2.615 3.285 2.615 1.575 0 2.624-1.006 3.286-2.615l4.938-11.498v13.989h3.769V19.455c0-2.63-1.711-3.841-3.36-3.841M30.692 30.555a.321.321 0 0 1-.23-.098.338.338 0 0 1-.095-.236v-2.749h9.389v-3.137h-9.39V21.99a.334.334 0 0 1 .096-.233.317.317 0 0 1 .23-.095h9.284v-3.26h-11.11a2.23 2.23 0 0 0-1.582.68 2.342 2.342 0 0 0-.66 1.623v10.809c.003.608.24 1.19.66 1.621.42.43.988.673 1.582.676h11.11v-3.255h-9.284zM46.368 33.81V21.973a.336.336 0 0 1 .096-.234.32.32 0 0 1 .23-.094h9.284v-3.228H44.841a2.224 2.224 0 0 0-1.581.676 2.338 2.338 0 0 0-.66 1.621V33.81h3.768zM106.367 30.77h-1.207c-3.149 0-4.356-1.447-4.356-4.675 0-3.132 1.049-4.67 4.356-4.67h1.207c3.191 0 4.351 1.538 4.351 4.67 0 3.228-1.234 4.675-4.351 4.675zm8.045-4.686c0-5.38-2.267-7.915-7.972-7.915h-1.317c-5.705 0-7.967 2.518-7.967 7.915 0 5.31 2.31 7.871 8.004 7.871h1.249c5.689 0 8.003-2.56 8.003-7.871zM90.533 26.084c-.562 1.522-1.48 2.502-4.03 2.502H84.78v-9.362h2.34c2.168 0 3.674 1.393 3.674 4.68a6.692 6.692 0 0 1-.215 2.153l-.047.027zm-9.468 2.475h-1.727c-2.545 0-3.464-.98-4.025-2.502a6.553 6.553 0 0 1-.215-2.152c0-3.288 1.48-4.681 3.674-4.681h2.314l-.021 9.335zm5.61-12.612H79.17c-5.568 0-7.793 2.89-7.793 7.925-.007.732.046 1.462.157 2.185.588 3.562 2.624 5.751 7.846 5.751h1.638v1.975h3.763v-1.948h1.637c5.212 0 7.253-2.19 7.873-5.751.11-.723.16-1.454.152-2.185 0-5.036-2.225-7.925-7.789-7.925" fill="#00B944"/><path d="M166.439 29.98c-.865 0-1.71-.264-2.429-.756a4.46 4.46 0 0 1-1.61-2.012 4.583 4.583 0 0 1-.249-2.589 4.523 4.523 0 0 1 1.196-2.295 4.344 4.344 0 0 1 2.239-1.226 4.272 4.272 0 0 1 2.526.255 4.4 4.4 0 0 1 1.962 1.65c.48.737.737 1.604.737 2.49a4.54 4.54 0 0 1-1.281 3.17 4.318 4.318 0 0 1-3.091 1.312z" fill="url(#a)"/><path d="M156.189 29.98c-.865 0-1.71-.264-2.429-.756a4.46 4.46 0 0 1-1.61-2.012 4.583 4.583 0 0 1-.249-2.589 4.523 4.523 0 0 1 1.196-2.295 4.344 4.344 0 0 1 2.239-1.226 4.272 4.272 0 0 1 2.526.255 4.4 4.4 0 0 1 1.962 1.65c.48.737.737 1.604.737 2.49a4.54 4.54 0 0 1-1.281 3.17 4.318 4.318 0 0 1-3.091 1.312zM145.939 29.98a4.293 4.293 0 0 1-2.43-.754 4.46 4.46 0 0 1-1.613-2.01 4.584 4.584 0 0 1-.251-2.59 4.518 4.518 0 0 1 1.195-2.296 4.346 4.346 0 0 1 2.239-1.228 4.27 4.27 0 0 1 2.526.254c.8.34 1.483.914 1.963 1.65.481.738.737 1.605.737 2.491a4.538 4.538 0 0 1-1.278 3.168 4.32 4.32 0 0 1-3.088 1.314z" fill="#00B944"/><path d="M186.938 21.015h-10.255a4.327 4.327 0 0 0-2.996 1.367 4.544 4.544 0 0 0-1.229 3.118c0 1.163.44 2.28 1.229 3.117a4.327 4.327 0 0 0 2.996 1.367h10.255a4.28 4.28 0 0 0 1.721-.295 4.366 4.366 0 0 0 1.472-.962c.422-.418.759-.92.988-1.474a4.577 4.577 0 0 0-.988-4.98 4.366 4.366 0 0 0-1.472-.962 4.28 4.28 0 0 0-1.721-.296z" fill="url(#b)"/><path d="M162.062 4.482V15a4.538 4.538 0 0 0 1.333 3.072 4.32 4.32 0 0 0 3.041 1.26 4.32 4.32 0 0 0 3.041-1.26A4.544 4.544 0 0 0 170.811 15V4.482a4.544 4.544 0 0 0-1.334-3.072 4.32 4.32 0 0 0-3.041-1.26 4.32 4.32 0 0 0-3.041 1.26 4.538 4.538 0 0 0-1.333 3.072z" fill="url(#c)"/><path d="M162.062 36v10.513a4.57 4.57 0 0 0 .288 1.764c.211.563.53 1.076.938 1.509a4.37 4.37 0 0 0 1.438 1.013 4.287 4.287 0 0 0 3.42 0 4.37 4.37 0 0 0 1.438-1.013c.408-.433.727-.946.938-1.509a4.59 4.59 0 0 0 .289-1.764V36a4.59 4.59 0 0 0-.289-1.764 4.512 4.512 0 0 0-.938-1.509 4.37 4.37 0 0 0-1.438-1.013 4.284 4.284 0 0 0-3.42 0 4.37 4.37 0 0 0-1.438 1.013 4.512 4.512 0 0 0-.938 1.509 4.57 4.57 0 0 0-.288 1.764z" fill="url(#d)"/><defs><linearGradient id="a" x1="162.067" y1="25.497" x2="170.811" y2="25.497" gradientUnits="userSpaceOnUse"><stop stop-color="#677B9F"/><stop offset=".79" stop-color="#8756BC"/><stop offset="1" stop-color="#904BC4"/></linearGradient><linearGradient id="b" x1="172.311" y1="25.497" x2="191.315" y2="25.497" gradientUnits="userSpaceOnUse"><stop stop-color="#8E51C2"/><stop offset="1" stop-color="#8C2AC1"/></linearGradient><linearGradient id="c" x1="160.781" y1="15.538" x2="172.377" y2="4.232" gradientUnits="userSpaceOnUse"><stop stop-color="#1FD66E"/><stop offset=".26" stop-color="#1DC860"/><stop offset=".68" stop-color="#1CB850"/><stop offset="1" stop-color="#1BB24A"/></linearGradient><linearGradient id="d" x1="162.03" y1="49.085" x2="171.18" y2="33.625" gradientUnits="userSpaceOnUse"><stop stop-color="#1FD46E"/><stop offset=".43" stop-color="#22D070"/><stop offset=".84" stop-color="#2DC576"/><stop offset="1" stop-color="#33BE7A"/></linearGradient></defs></svg>